<svg width="19" height="25" viewBox="0 0 19 25" fill="none" xmlns="http://www.w3.org/2000/svg">
<path d="M16.9729 2.74021H13.9464C13.7795 2.17979 13.4357 1.68787 12.9661 1.33737C12.4966 0.986875 11.9261 0.796456 11.3394 0.794342H7.43311C6.84635 0.796456 6.2759 0.986875 5.80631 1.33737C5.33673 1.68787 4.99299 2.17979 4.82607 2.74021H1.79951C1.32542 2.74082 0.870924 2.92873 0.535691 3.26272C0.200458 3.5967 0.0118506 4.04951 0.0112305 4.52184V22.3631C0.0118506 22.8354 0.200458 23.2882 0.535691 23.6222C0.870924 23.9562 1.32542 24.1441 1.79951 24.1447H16.9729C17.447 24.1441 17.9015 23.9562 18.2368 23.6222C18.572 23.2882 18.7606 22.8354 18.7612 22.3631V4.52184C18.7606 4.04951 18.572 3.5967 18.2368 3.26272C17.9015 2.92873 17.447 2.74082 16.9729 2.74021ZM7.43311 2.35103H11.3394C11.6502 2.35103 11.9482 2.47404 12.168 2.69299C12.3878 2.91194 12.5112 3.20891 12.5112 3.51855C12.5112 3.8282 12.3878 4.12516 12.168 4.34411C11.9482 4.56306 11.6502 4.68607 11.3394 4.68607H7.43311C7.1223 4.68607 6.82423 4.56306 6.60446 4.34411C6.3847 4.12516 6.26123 3.8282 6.26123 3.51855C6.26123 3.20891 6.3847 2.91194 6.60446 2.69299C6.82423 2.47404 7.1223 2.35103 7.43311 2.35103ZM17.1987 22.3631C17.1985 22.4227 17.1747 22.4798 17.1324 22.5219C17.0901 22.5641 17.0328 22.5878 16.9729 22.588H1.79951C1.73969 22.5878 1.68239 22.5641 1.64009 22.5219C1.59779 22.4798 1.57394 22.4227 1.57373 22.3631V4.52184C1.57394 4.46224 1.59779 4.40515 1.64009 4.36301C1.68239 4.32087 1.73969 4.2971 1.79951 4.2969H4.82607C4.99299 4.85732 5.33673 5.34924 5.80631 5.69973C6.2759 6.05023 6.84635 6.24065 7.43311 6.24276H11.3394C11.9261 6.24065 12.4966 6.05023 12.9661 5.69973C13.4357 5.34924 13.7795 4.85732 13.9464 4.2969H16.9729C17.0328 4.2971 17.0901 4.32087 17.1324 4.36301C17.1747 4.40515 17.1985 4.46224 17.1987 4.52184V22.3631Z" fill="#333845"/>
<path d="M14.0737 17.1396H4.69873C4.49153 17.1396 4.29282 17.2216 4.1463 17.3676C3.99979 17.5135 3.91748 17.7115 3.91748 17.9179C3.91748 18.1244 3.99979 18.3223 4.1463 18.4683C4.29282 18.6143 4.49153 18.6963 4.69873 18.6963H14.0737C14.2809 18.6963 14.4796 18.6143 14.6262 18.4683C14.7727 18.3223 14.855 18.1244 14.855 17.9179C14.855 17.7115 14.7727 17.5135 14.6262 17.3676C14.4796 17.2216 14.2809 17.1396 14.0737 17.1396Z" fill="#333845"/>
<path d="M14.0737 13.2479H4.69873C4.49153 13.2479 4.29282 13.3299 4.1463 13.4758C3.99979 13.6218 3.91748 13.8198 3.91748 14.0262C3.91748 14.2326 3.99979 14.4306 4.1463 14.5766C4.29282 14.7226 4.49153 14.8046 4.69873 14.8046H14.0737C14.2809 14.8046 14.4796 14.7226 14.6262 14.5766C14.7727 14.4306 14.855 14.2326 14.855 14.0262C14.855 13.8198 14.7727 13.6218 14.6262 13.4758C14.4796 13.3299 14.2809 13.2479 14.0737 13.2479Z" fill="#333845"/>
<path d="M14.0737 9.35614H4.69873C4.49153 9.35614 4.29282 9.43814 4.1463 9.58411C3.99979 9.73008 3.91748 9.92806 3.91748 10.1345C3.91748 10.3409 3.99979 10.5389 4.1463 10.6849C4.29282 10.8308 4.49153 10.9128 4.69873 10.9128H14.0737C14.2809 10.9128 14.4796 10.8308 14.6262 10.6849C14.7727 10.5389 14.855 10.3409 14.855 10.1345C14.855 9.92806 14.7727 9.73008 14.6262 9.58411C14.4796 9.43814 14.2809 9.35614 14.0737 9.35614Z" fill="#333845"/>
</svg>
