<svg width="23" height="22" viewBox="0 0 23 22" fill="none" xmlns="http://www.w3.org/2000/svg">
<path d="M19.9745 21.43H2.79776C2.2164 21.4292 1.65907 21.1988 1.24799 20.7893C0.836901 20.3797 0.605619 19.8244 0.604858 19.2452V8.58069C0.605147 8.23293 0.688623 7.89024 0.848366 7.58103C1.00811 7.27183 1.23952 7.005 1.52342 6.80267L10.1118 0.690943C10.4836 0.426391 10.9292 0.28418 11.3861 0.28418C11.8431 0.28418 12.2886 0.426391 12.6605 0.690943L21.2488 6.80267C21.5327 7.005 21.7641 7.27183 21.9239 7.58103C22.0836 7.89024 22.1671 8.23293 22.1674 8.58069V19.2452C22.1666 19.8244 21.9353 20.3797 21.5242 20.7893C21.1131 21.1988 20.5558 21.4292 19.9745 21.43ZM11.3861 1.71637C11.2287 1.71633 11.0752 1.76514 10.947 1.856L2.35861 7.96773C2.26085 8.03739 2.18116 8.12927 2.12616 8.23575C2.07116 8.34222 2.04243 8.46023 2.04236 8.57997V19.2452C2.04255 19.4448 2.1222 19.6361 2.26382 19.7772C2.40545 19.9183 2.59748 19.9976 2.79776 19.9978H19.9759C20.1759 19.9973 20.3676 19.9178 20.5089 19.7767C20.6502 19.6356 20.7297 19.4445 20.7299 19.2452V8.58069C20.7298 8.46094 20.7011 8.34294 20.6461 8.23646C20.5911 8.12999 20.5114 8.03811 20.4136 7.96844L11.8253 1.85672C11.6972 1.76534 11.5436 1.71625 11.3861 1.71637Z" fill="#333845"/>
<path d="M14.9799 17.8496H7.79236C7.60173 17.8496 7.41892 17.7742 7.28413 17.6399C7.14933 17.5056 7.07361 17.3235 7.07361 17.1335V14.9853C7.07361 14.7954 7.14933 14.6133 7.28413 14.479C7.41892 14.3447 7.60173 14.2692 7.79236 14.2692C7.98298 14.2692 8.1658 14.3447 8.30059 14.479C8.43538 14.6133 8.51111 14.7954 8.51111 14.9853V16.4175H14.2611V14.9853C14.2611 14.7954 14.3368 14.6133 14.4716 14.479C14.6064 14.3447 14.7892 14.2692 14.9799 14.2692C15.1705 14.2692 15.3533 14.3447 15.4881 14.479C15.6229 14.6133 15.6986 14.7954 15.6986 14.9853V17.1335C15.6986 17.3235 15.6229 17.5056 15.4881 17.6399C15.3533 17.7742 15.1705 17.8496 14.9799 17.8496Z" fill="#333845"/>
</svg>
