<svg width="25" height="24" viewBox="0 0 25 24" fill="none" xmlns="http://www.w3.org/2000/svg">
<path d="M0.667358 0.0137329V23.3641H24.1049V0.0137329H0.667358ZM13.2838 1.57042L11.3306 3.12712H2.22986V1.57042H13.2838ZM22.5424 21.8074H2.22986V4.68381H11.8791L15.7853 1.57042H22.5424V21.8074Z" fill="#333845"/>
<path d="M16.2924 9.35386V18.694H14.7299V6.24048H10.0424V18.694H8.47986V13.2456H3.79236V18.694H3.01111V20.2507H21.7611V18.694H20.9799V9.35386H16.2924ZM5.35486 18.694V14.8023H6.91736V18.694H5.35486ZM11.6049 18.694V7.79717H13.1674V18.694H11.6049ZM17.8549 18.694V10.9106H19.4174V18.694H17.8549Z" fill="#333845"/>
</svg>
