<svg width="166" height="35" viewBox="0 0 166 35" fill="none" xmlns="http://www.w3.org/2000/svg">
<path d="M66.321 28V10.5455H73.5312C74.8381 10.5455 75.9659 10.7812 76.9148 11.2528C77.8693 11.7187 78.6051 12.3892 79.1222 13.2642C79.6392 14.1335 79.8977 15.1648 79.8977 16.358C79.8977 17.5682 79.6335 18.5966 79.1051 19.4432C78.5767 20.2841 77.8267 20.9261 76.8551 21.3693C75.8835 21.8068 74.733 22.0256 73.4034 22.0256H68.8438V18.7017H72.6193C73.2557 18.7017 73.7869 18.6193 74.2131 18.4545C74.6449 18.2841 74.9716 18.0284 75.1932 17.6875C75.4148 17.3409 75.5256 16.8977 75.5256 16.358C75.5256 15.8182 75.4148 15.3722 75.1932 15.0199C74.9716 14.6619 74.6449 14.3949 74.2131 14.2188C73.7813 14.0369 73.25 13.946 72.6193 13.946H70.5398V28H66.321ZM76.1477 20.0227L80.4943 28H75.892L71.6307 20.0227H76.1477ZM85.902 28.2216C85.0668 28.2216 84.3253 28.0824 83.6776 27.804C83.0355 27.5199 82.527 27.0937 82.152 26.5256C81.7827 25.9517 81.598 25.233 81.598 24.3693C81.598 23.642 81.7259 23.0284 81.9815 22.5284C82.2372 22.0284 82.5895 21.6222 83.0384 21.3097C83.4872 20.9972 84.0043 20.7614 84.5895 20.6023C85.1747 20.4375 85.7997 20.3267 86.4645 20.2699C87.2088 20.2017 87.8082 20.1307 88.2628 20.0568C88.7173 19.9773 89.0469 19.8665 89.2514 19.7244C89.4616 19.5767 89.5668 19.3693 89.5668 19.1023V19.0597C89.5668 18.6222 89.4162 18.2841 89.1151 18.0455C88.8139 17.8068 88.4077 17.6875 87.8963 17.6875C87.3452 17.6875 86.902 17.8068 86.5668 18.0455C86.2315 18.2841 86.0185 18.6136 85.9276 19.0341L82.0838 18.8977C82.1974 18.1023 82.4901 17.392 82.9616 16.767C83.4389 16.1364 84.0923 15.642 84.9219 15.2841C85.7571 14.9205 86.7599 14.7386 87.9304 14.7386C88.7656 14.7386 89.5355 14.8381 90.2401 15.0369C90.9446 15.2301 91.5582 15.5142 92.081 15.8892C92.6037 16.2585 93.0071 16.7131 93.2912 17.2528C93.581 17.7926 93.7259 18.4091 93.7259 19.1023V28H89.8054V26.1761H89.7031C89.4702 26.6193 89.1719 26.9943 88.8082 27.3011C88.4503 27.608 88.027 27.8381 87.5384 27.9915C87.0554 28.1449 86.5099 28.2216 85.902 28.2216ZM87.1889 25.4943C87.6378 25.4943 88.0412 25.4034 88.3991 25.2216C88.7628 25.0398 89.0526 24.7898 89.2685 24.4716C89.4844 24.1477 89.5923 23.7727 89.5923 23.3466V22.1023C89.473 22.1648 89.3281 22.2216 89.1577 22.2727C88.9929 22.3239 88.8111 22.3722 88.6122 22.4176C88.4134 22.4631 88.2088 22.5028 87.9986 22.5369C87.7884 22.571 87.5866 22.6023 87.3935 22.6307C87.0014 22.6932 86.6662 22.7898 86.3878 22.9205C86.1151 23.0511 85.9048 23.2216 85.7571 23.4318C85.6151 23.6364 85.544 23.8807 85.544 24.1648C85.544 24.5966 85.6974 24.9261 86.0043 25.1534C86.3168 25.3807 86.7116 25.4943 87.1889 25.4943ZM100.442 20.5341V28H96.2741V14.9091H100.237V17.3125H100.382C100.672 16.5114 101.166 15.8835 101.865 15.429C102.564 14.9688 103.396 14.7386 104.362 14.7386C105.283 14.7386 106.081 14.946 106.757 15.3608C107.439 15.7699 107.967 16.3437 108.342 17.0824C108.723 17.8153 108.911 18.6733 108.905 19.6562V28H104.737V20.4744C104.743 19.7472 104.558 19.179 104.183 18.7699C103.814 18.3608 103.3 18.1562 102.641 18.1562C102.203 18.1562 101.817 18.2528 101.482 18.446C101.152 18.6335 100.896 18.9034 100.714 19.2557C100.538 19.608 100.447 20.0341 100.442 20.5341ZM117.587 33.1818C116.343 33.1818 115.278 33.0085 114.391 32.6619C113.505 32.3153 112.809 31.8409 112.303 31.2386C111.798 30.6364 111.494 29.9545 111.391 29.1932L115.337 28.9716C115.411 29.2386 115.548 29.4716 115.746 29.6705C115.951 29.8693 116.215 30.0227 116.539 30.1307C116.869 30.2386 117.255 30.2926 117.698 30.2926C118.397 30.2926 118.974 30.1222 119.428 29.7812C119.888 29.446 120.119 28.858 120.119 28.017V25.7159H119.974C119.809 26.1193 119.559 26.4801 119.224 26.7983C118.888 27.1165 118.471 27.3665 117.971 27.5483C117.477 27.7301 116.908 27.821 116.266 27.821C115.312 27.821 114.437 27.5994 113.641 27.1562C112.852 26.7074 112.218 26.0142 111.741 25.0767C111.269 24.1335 111.033 22.9205 111.033 21.4375C111.033 19.9091 111.278 18.6506 111.766 17.6619C112.255 16.6676 112.894 15.9318 113.684 15.4545C114.479 14.9773 115.335 14.7386 116.249 14.7386C116.937 14.7386 117.525 14.858 118.013 15.0966C118.508 15.3295 118.914 15.6307 119.232 16C119.55 16.3693 119.792 16.7528 119.957 17.1506H120.076V14.9091H124.227V28.0511C124.227 29.1591 123.948 30.0938 123.391 30.8551C122.835 31.6165 122.056 32.1932 121.056 32.5852C120.056 32.983 118.9 33.1818 117.587 33.1818ZM117.715 24.7869C118.221 24.7869 118.653 24.6534 119.011 24.3864C119.369 24.1193 119.644 23.7358 119.837 23.2358C120.031 22.7358 120.127 22.1364 120.127 21.4375C120.127 20.7273 120.031 20.1165 119.837 19.6051C119.65 19.0881 119.374 18.6903 119.011 18.4119C118.653 18.1335 118.221 17.9943 117.715 17.9943C117.198 17.9943 116.761 18.1364 116.403 18.4205C116.045 18.7045 115.772 19.1051 115.585 19.6222C115.403 20.1335 115.312 20.7386 115.312 21.4375C115.312 22.1364 115.406 22.7358 115.593 23.2358C115.781 23.7358 116.05 24.1193 116.403 24.3864C116.761 24.6534 117.198 24.7869 117.715 24.7869ZM126.884 28V14.9091H131.051V28H126.884ZM128.972 13.3835C128.386 13.3835 127.884 13.1903 127.463 12.804C127.043 12.4119 126.832 11.9403 126.832 11.3892C126.832 10.8437 127.043 10.3778 127.463 9.99148C127.884 9.59943 128.386 9.40341 128.972 9.40341C129.563 9.40341 130.065 9.59943 130.48 9.99148C130.901 10.3778 131.111 10.8437 131.111 11.3892C131.111 11.9403 130.901 12.4119 130.48 12.804C130.065 13.1903 129.563 13.3835 128.972 13.3835ZM136.048 28.2472C135.434 28.2472 134.908 28.0312 134.471 27.5994C134.039 27.1676 133.826 26.6449 133.832 26.0312C133.826 25.429 134.039 24.9148 134.471 24.4886C134.908 24.0568 135.434 23.8409 136.048 23.8409C136.627 23.8409 137.138 24.0568 137.582 24.4886C138.031 24.9148 138.258 25.429 138.263 26.0312C138.258 26.4403 138.15 26.8125 137.94 27.1477C137.735 27.483 137.465 27.75 137.13 27.9489C136.8 28.1477 136.44 28.2472 136.048 28.2472ZM141.016 28V14.9091H145.065V17.2955H145.201C145.44 16.4318 145.829 15.7898 146.369 15.3693C146.908 14.9432 147.536 14.7301 148.252 14.7301C148.445 14.7301 148.644 14.7443 148.849 14.7727C149.053 14.7955 149.244 14.8324 149.42 14.8835V18.5057C149.221 18.4375 148.96 18.3835 148.636 18.3438C148.317 18.304 148.033 18.2841 147.783 18.2841C147.289 18.2841 146.843 18.3949 146.445 18.6165C146.053 18.8324 145.744 19.1364 145.516 19.5284C145.295 19.9148 145.184 20.3693 145.184 20.892V28H141.016ZM159.564 22.3494V14.9091H163.723V28H159.751V25.5625H159.615C159.325 26.3636 158.831 27 158.132 27.4716C157.439 27.9375 156.601 28.1705 155.618 28.1705C154.726 28.1705 153.942 27.9659 153.266 27.5568C152.589 27.1477 152.064 26.5767 151.689 25.8438C151.314 25.1051 151.124 24.2415 151.118 23.2528V14.9091H155.286V22.4347C155.291 23.1449 155.479 23.7045 155.848 24.1136C156.217 24.5227 156.72 24.7273 157.357 24.7273C157.771 24.7273 158.143 24.6364 158.473 24.4545C158.808 24.267 159.072 23.9972 159.266 23.6449C159.464 23.2869 159.564 22.8551 159.564 22.3494Z" fill="#2A3848"/>
<path d="M42.6779 0.662093L38.8614 2.86562L35.0449 5.06914C33.0605 6.21476 33.0605 9.07938 35.0449 10.2254L35.3392 10.3953L31.3929 17.2308L30.963 17.9757L30.6024 18.6002L29.8883 19.837C29.5519 20.4201 28.8062 20.6197 28.2231 20.2833C27.6399 19.9465 27.4404 19.2013 27.7768 18.6181L29.2814 16.0119C29.2821 16.0104 29.2845 16.0119 29.286 16.0108L29.4482 15.7301C30.5712 13.785 29.9047 11.2977 27.9596 10.1747C26.0145 9.0517 23.5272 9.71826 22.4042 11.6633L16.512 21.869L16.1058 22.5722C15.787 23.1242 15.081 23.3136 14.5291 22.9948C13.9771 22.6759 13.7881 21.97 14.1066 21.418L15.1992 19.5256L16.045 18.0607C17.168 16.1156 16.5015 13.6283 14.5564 12.5053C12.6113 11.3823 10.124 12.0489 9.00099 13.9939L0.545495 28.6394C-0.577512 30.5845 0.0890419 33.0718 2.03413 34.1948C3.97922 35.3178 6.46652 34.6513 7.58953 32.7062L9.40248 29.5664L10.6752 27.3621L10.5154 27.2697C9.95677 26.9473 9.95677 26.1408 10.5154 25.8185L11.5896 25.1983L12.6639 24.5781C13.2225 24.2558 13.9206 24.6588 13.9206 25.3039V26.5443V27.7846C13.9206 28.4254 13.2318 28.8257 12.6752 28.5151L12.3879 29.0128L12.4082 29.0245C11.5729 30.9018 12.2729 33.1451 14.0921 34.1952C16.0372 35.3182 18.5245 34.6517 19.6475 32.7066L22.8583 27.1457L24.2643 24.7106L24.1852 24.665C23.6266 24.3427 23.6266 23.5362 24.1852 23.2138L25.2594 22.5937L26.3337 21.9735C26.8923 21.6511 27.5904 22.0542 27.5904 22.6993V23.9396V25.18C27.5904 25.8091 26.9266 26.2028 26.3758 25.9229L24.8069 28.6402C23.6839 30.5853 24.3504 33.0726 26.2955 34.1956C28.2406 35.3186 30.7279 34.652 31.8509 32.707L42.384 14.4633L42.6783 14.6332C44.6628 15.7788 47.1438 14.3467 47.1438 12.0551V7.64726V3.24021C47.1431 0.948594 44.6624 -0.483522 42.6779 0.662093Z" fill="#FFD600"/>
<path d="M42.4352 22.0055C43.6697 19.867 46.7565 19.867 47.991 22.0055L50.2783 25.967L52.5656 29.9285C53.8001 32.0669 52.2569 34.7401 49.7879 34.7401H45.2137H40.6394C38.17 34.7401 36.6268 32.0673 37.8617 29.9285L40.1486 25.967L42.4352 22.0055Z" fill="#333845"/>
</svg>
