<svg width="20" height="23" viewBox="0 0 20 23" fill="none" xmlns="http://www.w3.org/2000/svg">
<path d="M9.88623 22.5576C9.69431 22.5576 9.50246 22.4846 9.35598 22.3387L3.32928 16.3344C-0.28632 12.7322 -0.28632 6.87162 3.32928 3.26947C6.94451 -0.333067 12.828 -0.333067 16.4433 3.26947C20.0589 6.87162 20.0589 12.7322 16.4433 16.3344L10.4166 22.3387C10.27 22.4846 10.0782 22.5576 9.88623 22.5576ZM9.88623 2.06145C7.89588 2.06145 5.90516 2.81636 4.38978 4.3261C1.35941 7.34558 1.35941 12.2583 4.38978 15.2778L9.88623 20.7538L15.3827 15.2778C18.4131 12.2583 18.4131 7.34558 15.3827 4.3261C13.8673 2.81636 11.8766 2.06145 9.88623 2.06145Z" fill="#333845"/>
<path d="M9.88623 13.4849C7.81863 13.4849 6.13623 11.8087 6.13623 9.74882C6.13623 7.6889 7.81863 6.01276 9.88623 6.01276C11.9538 6.01276 13.6362 7.6889 13.6362 9.74882C13.6362 11.8087 11.9538 13.4849 9.88623 13.4849ZM9.88623 7.50718C8.64551 7.50718 7.63623 8.5127 7.63623 9.74882C7.63623 10.9849 8.64551 11.9905 9.88623 11.9905C11.127 11.9905 12.1362 10.9849 12.1362 9.74882C12.1362 8.5127 11.127 7.50718 9.88623 7.50718Z" fill="#333845"/>
</svg>
