<svg width="167" height="35" viewBox="0 0 167 35" fill="none" xmlns="http://www.w3.org/2000/svg">
<path d="M66.5672 27.9482V10.4937H73.7775C75.0843 10.4937 76.2121 10.7295 77.161 11.2011C78.1155 11.667 78.8513 12.3374 79.3684 13.2124C79.8854 14.0818 80.1439 15.113 80.1439 16.3062C80.1439 17.5164 79.8797 18.5448 79.3513 19.3914C78.8229 20.2323 78.0729 20.8744 77.1013 21.3176C76.1297 21.7551 74.9792 21.9738 73.6496 21.9738H69.09V18.6499H72.8655C73.5019 18.6499 74.0331 18.5676 74.4593 18.4028C74.8911 18.2323 75.2178 17.9767 75.4394 17.6357C75.661 17.2892 75.7718 16.846 75.7718 16.3062C75.7718 15.7664 75.661 15.3204 75.4394 14.9681C75.2178 14.6102 74.8911 14.3431 74.4593 14.167C74.0275 13.9852 73.4962 13.8943 72.8655 13.8943H70.786V27.9482H66.5672ZM76.3939 19.971L80.7405 27.9482H76.1383L71.8769 19.971H76.3939ZM86.1482 28.1698C85.313 28.1698 84.5715 28.0306 83.9238 27.7522C83.2817 27.4681 82.7732 27.042 82.3982 26.4738C82.0289 25.8999 81.8442 25.1812 81.8442 24.3176C81.8442 23.5903 81.9721 22.9767 82.2277 22.4767C82.4834 21.9767 82.8357 21.5704 83.2846 21.2579C83.7334 20.9454 84.2505 20.7096 84.8357 20.5505C85.4209 20.3857 86.0459 20.2749 86.7107 20.2181C87.455 20.1499 88.0545 20.0789 88.509 20.0051C88.9635 19.9255 89.2931 19.8147 89.4976 19.6727C89.7079 19.5249 89.813 19.3176 89.813 19.0505V19.0079C89.813 18.5704 89.6624 18.2323 89.3613 17.9937C89.0601 17.7551 88.6539 17.6357 88.1425 17.6357C87.5914 17.6357 87.1482 17.7551 86.813 17.9937C86.4778 18.2323 86.2647 18.5619 86.1738 18.9823L82.33 18.846C82.4437 18.0505 82.7363 17.3403 83.2079 16.7153C83.6851 16.0846 84.3385 15.5903 85.1681 15.2323C86.0033 14.8687 87.0062 14.6869 88.1766 14.6869C89.0118 14.6869 89.7817 14.7863 90.4863 14.9852C91.1908 15.1784 91.8045 15.4624 92.3272 15.8374C92.8499 16.2068 93.2533 16.6613 93.5374 17.2011C93.8272 17.7409 93.9721 18.3573 93.9721 19.0505V27.9482H90.0516V26.1244H89.9493C89.7164 26.5676 89.4181 26.9426 89.0545 27.2494C88.6965 27.5562 88.2732 27.7863 87.7846 27.9397C87.3016 28.0931 86.7562 28.1698 86.1482 28.1698ZM87.4351 25.4426C87.884 25.4426 88.2874 25.3517 88.6454 25.1698C89.009 24.988 89.2988 24.738 89.5147 24.4198C89.7306 24.096 89.8385 23.721 89.8385 23.2948V22.0505C89.7192 22.113 89.5743 22.1698 89.4039 22.221C89.2391 22.2721 89.0573 22.3204 88.8584 22.3659C88.6596 22.4113 88.455 22.4511 88.2448 22.4852C88.0346 22.5193 87.8329 22.5505 87.6397 22.5789C87.2476 22.6414 86.9124 22.738 86.634 22.8687C86.3613 22.9994 86.151 23.1698 86.0033 23.3801C85.8613 23.5846 85.7902 23.8289 85.7902 24.113C85.7902 24.5448 85.9437 24.8744 86.2505 25.1017C86.563 25.3289 86.9579 25.4426 87.4351 25.4426ZM100.688 20.4823V27.9482H96.5204V14.8573H100.483V17.2607H100.628C100.918 16.4596 101.412 15.8318 102.111 15.3772C102.81 14.917 103.643 14.6869 104.608 14.6869C105.529 14.6869 106.327 14.8943 107.003 15.309C107.685 15.7181 108.214 16.292 108.589 17.0306C108.969 17.7636 109.157 18.6215 109.151 19.6045V27.9482H104.983V20.4227C104.989 19.6954 104.804 19.1272 104.429 18.7181C104.06 18.309 103.546 18.1045 102.887 18.1045C102.449 18.1045 102.063 18.2011 101.728 18.3943C101.398 18.5818 101.143 18.8517 100.961 19.2039C100.785 19.5562 100.694 19.9823 100.688 20.4823ZM117.834 33.1301C116.589 33.1301 115.524 32.9568 114.638 32.6102C113.751 32.2636 113.055 31.7892 112.549 31.1869C112.044 30.5846 111.74 29.9028 111.638 29.1414L115.584 28.9198C115.657 29.1869 115.794 29.4198 115.993 29.6187C116.197 29.8176 116.461 29.971 116.785 30.0789C117.115 30.1869 117.501 30.2409 117.944 30.2409C118.643 30.2409 119.22 30.0704 119.674 29.7295C120.135 29.3943 120.365 28.8062 120.365 27.9653V25.6642H120.22C120.055 26.0676 119.805 26.4284 119.47 26.7465C119.135 27.0647 118.717 27.3147 118.217 27.4965C117.723 27.6784 117.155 27.7693 116.513 27.7693C115.558 27.7693 114.683 27.5477 113.888 27.1045C113.098 26.6556 112.464 25.9624 111.987 25.0249C111.515 24.0818 111.28 22.8687 111.28 21.3857C111.28 19.8573 111.524 18.5988 112.013 17.6102C112.501 16.6159 113.14 15.8801 113.93 15.4028C114.726 14.9255 115.581 14.6869 116.496 14.6869C117.183 14.6869 117.771 14.8062 118.26 15.0448C118.754 15.2778 119.16 15.5789 119.478 15.9482C119.797 16.3176 120.038 16.7011 120.203 17.0988H120.322V14.8573H124.473V27.9994C124.473 29.1073 124.194 30.042 123.638 30.8034C123.081 31.5647 122.302 32.1414 121.302 32.5335C120.302 32.9312 119.146 33.1301 117.834 33.1301ZM117.961 24.7352C118.467 24.7352 118.899 24.6017 119.257 24.3346C119.615 24.0676 119.89 23.684 120.084 23.184C120.277 22.684 120.373 22.0846 120.373 21.3857C120.373 20.6755 120.277 20.0647 120.084 19.5534C119.896 19.0363 119.621 18.6386 119.257 18.3602C118.899 18.0818 118.467 17.9426 117.961 17.9426C117.444 17.9426 117.007 18.0846 116.649 18.3687C116.291 18.6528 116.018 19.0534 115.831 19.5704C115.649 20.0818 115.558 20.6869 115.558 21.3857C115.558 22.0846 115.652 22.684 115.839 23.184C116.027 23.684 116.297 24.0676 116.649 24.3346C117.007 24.6017 117.444 24.7352 117.961 24.7352ZM127.13 27.9482V14.8573H131.297V27.9482H127.13ZM129.218 13.3318C128.633 13.3318 128.13 13.1386 127.709 12.7522C127.289 12.3602 127.079 11.8886 127.079 11.3374C127.079 10.792 127.289 10.3261 127.709 9.93972C128.13 9.54767 128.633 9.35165 129.218 9.35165C129.809 9.35165 130.312 9.54767 130.726 9.93972C131.147 10.3261 131.357 10.792 131.357 11.3374C131.357 11.8886 131.147 12.3602 130.726 12.7522C130.312 13.1386 129.809 13.3318 129.218 13.3318ZM136.294 28.1954C135.68 28.1954 135.155 27.9795 134.717 27.5477C134.285 27.1159 134.072 26.5931 134.078 25.9795C134.072 25.3772 134.285 24.863 134.717 24.4369C135.155 24.0051 135.68 23.7892 136.294 23.7892C136.873 23.7892 137.385 24.0051 137.828 24.4369C138.277 24.863 138.504 25.3772 138.51 25.9795C138.504 26.3886 138.396 26.7607 138.186 27.096C137.981 27.4312 137.711 27.6982 137.376 27.8971C137.047 28.096 136.686 28.1954 136.294 28.1954ZM141.263 27.9482V14.8573H145.311V17.2437H145.447C145.686 16.3801 146.075 15.738 146.615 15.3176C147.155 14.8914 147.782 14.6784 148.498 14.6784C148.692 14.6784 148.89 14.6926 149.095 14.721C149.299 14.7437 149.49 14.7806 149.666 14.8318V18.4539C149.467 18.3857 149.206 18.3318 148.882 18.292C148.564 18.2522 148.28 18.2323 148.03 18.2323C147.535 18.2323 147.089 18.3431 146.692 18.5647C146.299 18.7806 145.99 19.0846 145.763 19.4767C145.541 19.863 145.43 20.3176 145.43 20.8403V27.9482H141.263ZM159.81 22.2977V14.8573H163.969V27.9482H159.998V25.5107H159.861C159.572 26.3119 159.077 26.9482 158.378 27.4198C157.685 27.8857 156.847 28.1187 155.864 28.1187C154.972 28.1187 154.188 27.9142 153.512 27.5051C152.836 27.096 152.31 26.5249 151.935 25.792C151.56 25.0534 151.37 24.1897 151.364 23.2011V14.8573H155.532V22.3829C155.537 23.0931 155.725 23.6528 156.094 24.0619C156.464 24.471 156.966 24.6755 157.603 24.6755C158.018 24.6755 158.39 24.5846 158.719 24.4028C159.054 24.2153 159.319 23.9454 159.512 23.5931C159.711 23.2352 159.81 22.8034 159.81 22.2977Z" fill="white"/>
<path d="M42.924 0.610213L39.1075 2.81374L35.291 5.01726C33.3065 6.16288 33.3065 9.0275 35.291 10.1735L35.5853 10.3435L31.639 17.1789L31.2091 17.9238L30.8485 18.5483L30.1344 19.7851C29.798 20.3683 29.0523 20.5678 28.4692 20.2314C27.886 19.8947 27.6864 19.1494 28.0228 18.5662L29.5275 15.96C29.5282 15.9585 29.5306 15.96 29.5321 15.9589L29.6943 15.6782C30.8173 13.7331 30.1507 11.2458 28.2057 10.1228C26.2606 8.99982 23.7733 9.66638 22.6503 11.6115L16.7581 21.8171L16.3519 22.5203C16.0331 23.0723 15.3271 23.2617 14.7752 22.9429C14.2232 22.624 14.0342 21.9181 14.3526 21.3661L15.4453 19.4737L16.2911 18.0088C17.4141 16.0637 16.7476 13.5764 14.8025 12.4534C12.8574 11.3304 10.3701 11.997 9.24708 13.9421L0.791588 28.5875C-0.331418 30.5326 0.335136 33.0199 2.28022 34.1429C4.22531 35.2659 6.71262 34.5994 7.83562 32.6543L9.64857 29.5145L10.9213 27.3102L10.7614 27.2178C10.2029 26.8954 10.2029 26.0889 10.7614 25.7666L11.8357 25.1464L12.91 24.5262C13.4686 24.2039 14.1667 24.6069 14.1667 25.252V26.4924V27.7327C14.1667 28.3735 13.4779 28.7739 12.9213 28.4632L12.634 28.961L12.6543 28.9727C11.819 30.8499 12.519 33.0932 14.3382 34.1433C16.2833 35.2663 18.7706 34.5998 19.8936 32.6547L23.1044 27.0938L24.5104 24.6588L24.4313 24.6132C23.8727 24.2908 23.8727 23.4843 24.4313 23.1619L25.5055 22.5418L26.5798 21.9216C27.1384 21.5992 27.8365 22.0023 27.8365 22.6474V23.8878V25.1281C27.8365 25.7572 27.1727 26.1509 26.6219 25.871L25.053 28.5883C23.93 30.5334 24.5965 33.0207 26.5416 34.1437C28.4867 35.2667 30.974 34.6002 32.097 32.6551L42.6301 14.4114L42.9244 14.5813C44.9089 15.7269 47.3899 14.2948 47.3899 12.0032V7.59538V3.18833C47.3891 0.896714 44.9085 -0.535402 42.924 0.610213Z" fill="#FFD600"/>
<path d="M42.6812 21.9537C43.9156 19.8152 47.0024 19.8152 48.2369 21.9537L50.5243 25.9152L52.8116 29.8767C54.0461 32.0151 52.5029 34.6884 50.0339 34.6884H45.4596H40.8853C38.416 34.6884 36.8728 32.0155 38.1077 29.8767L40.3946 25.9152L42.6812 21.9537Z" fill="white"/>
</svg>
