<svg width="22" height="23" viewBox="0 0 22 23" fill="none" xmlns="http://www.w3.org/2000/svg">
<path fill-rule="evenodd" clip-rule="evenodd" d="M3.30005 6.00002C3.30005 5.70828 3.41594 5.4285 3.62223 5.2222C3.82852 5.01592 4.10831 4.90002 4.40005 4.90002H17.6C17.8918 4.90002 18.1716 5.01592 18.3779 5.2222C18.5841 5.4285 18.7 5.70828 18.7 6.00002C18.7 6.29177 18.5841 6.57155 18.3779 6.77785C18.1716 6.98413 17.8918 7.10002 17.6 7.10002H4.40005C4.10831 7.10002 3.82852 6.98413 3.62223 6.77785C3.41594 6.57155 3.30005 6.29177 3.30005 6.00002ZM3.30005 11.5C3.30005 11.2083 3.41594 10.9285 3.62223 10.7222C3.82852 10.5159 4.10831 10.4 4.40005 10.4H11C11.2918 10.4 11.5716 10.5159 11.7779 10.7222C11.9841 10.9285 12.1 11.2083 12.1 11.5C12.1 11.7917 11.9841 12.0716 11.7779 12.2778C11.5716 12.4841 11.2918 12.6 11 12.6H4.40005C4.10831 12.6 3.82852 12.4841 3.62223 12.2778C3.41594 12.0716 3.30005 11.7917 3.30005 11.5ZM3.30005 17C3.30005 16.7083 3.41594 16.4285 3.62223 16.2222C3.82852 16.016 4.10831 15.9 4.40005 15.9H17.6C17.8918 15.9 18.1716 16.016 18.3779 16.2222C18.5841 16.4285 18.7 16.7083 18.7 17C18.7 17.2917 18.5841 17.5716 18.3779 17.7778C18.1716 17.9841 17.8918 18.1 17.6 18.1H4.40005C4.10831 18.1 3.82852 17.9841 3.62223 17.7778C3.41594 17.5716 3.30005 17.2917 3.30005 17Z" fill="#333845"/>
</svg>
