<svg width="21" height="21" viewBox="0 0 21 21" fill="none" xmlns="http://www.w3.org/2000/svg">
<g clip-path="url(#clip0_49_1582)">
<path d="M20.8007 19.8575L15.3789 14.5223C16.7987 12.9797 17.6711 10.9396 17.6711 8.69472C17.6704 3.89245 13.7149 0 8.83519 0C3.95548 0 0 3.89245 0 8.69472C0 13.497 3.95548 17.3894 8.83519 17.3894C10.9436 17.3894 12.8773 16.6602 14.3963 15.4478L19.8392 20.804C20.1044 21.0653 20.5349 21.0653 20.8001 20.804C21.066 20.5428 21.066 20.1188 20.8007 19.8575ZM8.83519 16.0517C4.70643 16.0517 1.35942 12.7579 1.35942 8.69472C1.35942 4.63156 4.70643 1.33773 8.83519 1.33773C12.964 1.33773 16.311 4.63156 16.311 8.69472C16.311 12.7579 12.964 16.0517 8.83519 16.0517Z" fill="#2A3848"/>
</g>
<defs>
<clipPath id="clip0_49_1582">
<rect width="21" height="21" fill="white"/>
</clipPath>
</defs>
</svg>
