<svg width="29" height="29" viewBox="0 0 29 29" fill="none" xmlns="http://www.w3.org/2000/svg">
<path d="M21.0832 27.1002H7.43323C4.54573 27.1002 2.18323 24.7377 2.18323 21.8502V21.6752L2.70823 7.67522C2.79573 4.78772 5.15823 2.60022 7.95823 2.60022H20.5582C23.3582 2.60022 25.7207 4.78772 25.8082 7.67522L26.3332 21.6752C26.4207 23.0752 25.8957 24.3877 24.9332 25.4377C23.9707 26.4877 22.6582 27.1002 21.2582 27.1002C21.2582 27.1002 21.1707 27.1002 21.0832 27.1002ZM7.95823 4.35022C6.03323 4.35022 4.54573 5.83772 4.45823 7.67522L3.93323 21.8502C3.93323 23.7752 5.50823 25.3502 7.43323 25.3502H21.2582C22.2207 25.3502 23.0957 24.9127 23.7082 24.2127C24.3207 23.5127 24.6707 22.6377 24.6707 21.6752L24.1457 7.67522C24.0582 5.75022 22.5707 4.35022 20.6457 4.35022H7.95823Z" fill="#333845"/>
<path d="M14.2582 13.1002C10.8457 13.1002 8.13318 10.3877 8.13318 6.97522C8.13318 6.45022 8.48318 6.10022 9.00818 6.10022C9.53318 6.10022 9.88318 6.45022 9.88318 6.97522C9.88318 9.42522 11.8082 11.3502 14.2582 11.3502C16.7082 11.3502 18.6332 9.42522 18.6332 6.97522C18.6332 6.45022 18.9832 6.10022 19.5082 6.10022C20.0332 6.10022 20.3832 6.45022 20.3832 6.97522C20.3832 10.3877 17.6707 13.1002 14.2582 13.1002Z" fill="#333845"/>
</svg>
