<svg width="30" height="29" viewBox="0 0 30 29" fill="none" xmlns="http://www.w3.org/2000/svg">
<path d="M15.3861 1.8291C8.38986 1.8291 2.69861 7.4992 2.69861 14.4694C2.69861 21.4397 8.38986 27.1098 15.3861 27.1098C22.3824 27.1098 28.0736 21.4397 28.0736 14.4694C28.0736 7.4992 22.3824 1.8291 15.3861 1.8291ZM15.3861 25.304C9.38673 25.304 4.51111 20.4465 4.51111 14.4694C4.51111 8.49236 9.38673 3.63486 15.3861 3.63486C21.3855 3.63486 26.2611 8.49236 26.2611 14.4694C26.2611 20.4465 21.3855 25.304 15.3861 25.304Z" fill="#333845"/>
<path d="M21.9292 12.14L17.9689 11.5712L16.2017 7.99578C15.8936 7.38182 14.8786 7.38182 14.5705 7.99578L12.8033 11.5712L8.84296 12.14C8.50756 12.1942 8.21765 12.4289 8.11796 12.754C8.00921 13.079 8.09984 13.4402 8.34453 13.6839L11.2083 16.4648L10.5286 20.3923C10.4742 20.7264 10.6102 21.0695 10.8911 21.2772C11.172 21.4758 11.5436 21.5029 11.8427 21.3404L15.3861 19.4895L18.9295 21.3404C19.0564 21.4126 19.2014 21.4487 19.3464 21.4487C19.5367 21.4487 19.727 21.3855 19.8811 21.2772C20.162 21.0695 20.298 20.7264 20.2436 20.3923L19.5639 16.4648L22.4276 13.6839C22.6723 13.4402 22.763 13.079 22.6542 12.754C22.5545 12.4289 22.2645 12.1942 21.9292 12.14ZM17.9598 15.4987C17.7422 15.7064 17.6517 16.0043 17.697 16.3023L18.1411 18.8936L15.803 17.6656C15.6761 17.6024 15.5311 17.5663 15.3861 17.5663C15.2411 17.5663 15.0961 17.6024 14.9692 17.6656L12.6311 18.8936L13.0752 16.3023C13.1205 16.0043 13.0298 15.7064 12.8123 15.4987L10.9273 13.6659L13.5373 13.2867C13.8273 13.2415 14.0902 13.0609 14.217 12.7901L15.3861 10.4336L16.5552 12.7901C16.682 13.0609 16.9448 13.2415 17.2348 13.2867L19.8448 13.6659L17.9598 15.4987Z" fill="#333845"/>
</svg>
